<svg width="35" height="28" viewBox="0 0 35 28" fill="none" xmlns="http://www.w3.org/2000/svg">
<path fill-rule="evenodd" clip-rule="evenodd" d="M27.5375 7.70865H23.5486C21.6072 5.13336 18.5031 3.46448 15.0088 3.46448C9.13257 3.46448 4.36219 8.18279 4.36219 13.9938C4.36219 19.8052 9.13257 24.5231 15.0088 24.5231C18.5031 24.5231 21.6072 22.8542 23.5486 20.2794H27.5375C25.2163 24.7921 20.475 27.8867 15.0088 27.8867C7.25564 27.8867 0.961426 21.6618 0.961426 13.9938C0.961426 6.32623 7.25564 0.101318 15.0088 0.101318C20.475 0.101318 25.2163 3.1959 27.5375 7.70865ZM18.3517 14.6142C18.0569 16.1749 16.6713 17.3574 15.0088 17.3574C13.1314 17.3574 11.6076 15.8503 11.6076 13.9938C11.6076 12.1377 13.1314 10.6306 15.0088 10.6306C16.6713 10.6306 18.0569 11.8131 18.3517 13.3738H35.0001V14.6142H18.3517Z" fill="white"/>
</svg>
